<svg id="Layer_1" data-name="Layer 1" xmlns="http://www.w3.org/2000/svg" xmlns:xlink="http://www.w3.org/1999/xlink" viewBox="0 0 512 512"><defs><radialGradient id="GradientFill_1" cx="279.14" cy="233.53" r="285.79" gradientUnits="userSpaceOnUse"><stop offset="0" stop-color="#fff"/><stop offset="0.51" stop-color="#fbfbfb"/><stop offset="1" stop-color="#d0d2d3"/></radialGradient></defs><title>cut</title><path d="M282.94,100.33,18,205.73a28.42,28.42,0,0,0-15.9,37.1l92.44,212c5.89,14.71,22.38,21.79,36.51,15.89l233.76-93c27.66,18.84,51.22,30,87.73,27.67-25.33-10-39.45-21.2-57.7-40H396c14.72-5.88,21.79-23,15.9-37.09l-92.45-212C313.56,101.5,297.07,94.44,282.94,100.33Z" fill="#231f20" fill-rule="evenodd"/><path d="M283.53,107.39,28,201.61c-14.13,5.3-21.79,21.2-15.9,35.33L94.52,441.85c5.89,14.13,21.2,21.2,34.74,15.89l226.11-83c25.91,18.85,47.69,30.62,83,29.45-24.15-10.6-37.11-21.79-54.18-40l1.18-.58c14.14-5.3,21.79-21.2,15.89-34.74l-82.44-205.5C313,109.75,297.66,102.1,283.53,107.39Z" fill="#839ca9" fill-rule="evenodd"/><path d="M389.52,39.68,71,99.74c-17.07,2.94-29.45,20-25.32,37.68l55.94,256.73c4.12,17.66,20,29.44,37.69,25.91l280.87-52.41c26.5,27.08,50.63,44.75,91.86,50.63-25.91-17.08-39.45-33-55.35-57.7h1.17c17.67-3.54,29.45-20.61,25.91-37.69L427.2,65.59A33,33,0,0,0,389.52,39.68Z" fill="#231f20" fill-rule="evenodd"/><path d="M389.52,48.51,83.34,97.38c-17.08,2.36-28.86,18.84-25.91,35.33L104.53,380c3.53,16.48,18.84,28.26,35.92,25.32l269.68-43c24.73,26.5,47.1,44.76,86.56,50.63C472,396.5,459.59,381.2,445.46,356.47H446c17.08-2.36,28.85-18.84,25.91-35.33l-47.1-247.3C421.31,57.34,406,45.57,389.52,48.51Z" fill-rule="evenodd" fill="url(#GradientFill_1)"/><path d="M324.75,288.16l5.3,7.66h0c6.47,11.78,10,23.55,12.36,37.1l1.17,8.24-5.89-5.89c-4.12-4.7-8.83-8.83-13-13V288.16Zm0-201.37c11.18-1.18,23,2.94,29.44,12.36,6.48,8.83,7.65,20.61,7.07,32.38-1.76,23.56-15.31,36.51-35.92,38.28h-.59V156.26c11.18,0,20-9.42,22.38-23.55,1.17-6.48,1.17-13.54-2.36-20-1.76-4.12-4.12-6.48-6.47-8.83a16.2,16.2,0,0,0-13.54-2.94ZM280.58,207.49l-1.76,5.3a24.24,24.24,0,0,1,2.95,5.3L305.32,257l19.43,31.2v34.15c-2.95-3.53-5.89-6.47-8.83-10h-.59L269.4,241.06l-2.95-3.53-1.76,4.12-22.38,81.84h0c-4.12,10-8.83,19.43-13.55,28.85L224.65,360l-1.18-8.83a96.24,96.24,0,0,1,.59-38.86h0l11.78-44.75,10-43.57c.59-2.36.59-4.12,1.18-5.89-1.18-1.76-1.77-3.53-2.95-4.71l-12.36-14.13h0c0-.59,0-.59-.59-.59-2.95-1.76-6.48-6.48-9.42-8.83-3.54-3.53-7.66-6.48-12.37-7.07h-4.12c-5.3,1.76-8.83,6.48-15.31,8.24-4.12,1.18-8.24,1.18-12.36,1.18V178.64c7.06.59,14.14-2.36,20.6-9.42.59-.59.59-1.18,1.18-1.77,1.77-2.94,2.94-5.3,2.94-7.65,1.18-12.36-8.83-23-19.42-30-1.77-.59-3.54-1.76-5.3-2.36V112.69h.59c9.42,3.53,17.67,11.19,24.73,19.43l7.07,8.83,31.2,39.45a10.48,10.48,0,0,1,2.95,4.12L260,196.31l11.18-15.9,1.77-5.3L290.6,128l4.12-10c4.12-10,9.42-20,17.67-25.91a25.54,25.54,0,0,1,12.36-5.3v14.13c-4.12,1.18-8.24,4.12-11.78,8.83-7.65,9.42-14.13,23-9.42,34.15a16.63,16.63,0,0,0,5.29,5.89l1.77,1.77c4.71,2.94,10,4.71,14.14,4.71v13.54c-6.48.59-11.19-2.94-16.48-2.94a10.83,10.83,0,0,0-4.12,1.18c-4.71,1.76-7.08,5.89-9.42,10-2.36,3.53-4.12,8.83-6.49,11.78a.57.57,0,0,0-.58.59h0Zm-103-15.31c-14.73-.59-27.09-9.42-33.56-26.49-4.71-10.6-6.49-23-3.54-33,4.71-15.31,22.37-24.73,37.1-20v14.72c-8.24-3.53-15.9-1.76-20,4.71a28.21,28.21,0,0,0-3.54,10.6c-1.17,7.06.59,13.54,3.54,20,5.3,9.42,12.37,14.72,20,15.9Z" fill="#231f20" fill-rule="evenodd"/></svg>